<?xml version="1.0"?>
<svg xmlns="http://www.w3.org/2000/svg" height="512px" viewBox="0 0 512 512" width="512px"><path d="m245.019531 148.363281c0-43.5-31.574219-79.742187-72.949219-86.890625v-27.804687h-29.9375v27.804687c-41.371093 7.148438-72.949218 43.386719-72.949218 86.890625v3.285157h175.835937zm0 0" fill="#046866"/><path d="m335.035156 60.019531c16.691406 18.972657 24.503906 44.324219 21.4375 69.554688l29.71875 3.632812c4.101563-33.734375-6.363281-67.648437-28.707031-93.050781-22.34375-25.398438-54.597656-40.035156-88.484375-40.15625l-.105469 30.023438c25.339844.089843 49.449219 11.023437 66.140625 29.996093zm0 0" fill="#046866"/><path d="m290.089844 99.789062c-5.398438-6.132812-13.183594-9.667968-21.363282-9.695312l-.09375 28.679688 28.386719 3.480468c.992188-8.144531-1.535156-16.332031-6.929687-22.464844zm0 0" fill="#046866"/><path d="m301.609375 89.59375c8.28125 9.417969 12.15625 22.007812 10.632813 34.542969l29.71875 3.636719c2.558593-21.042969-3.964844-42.199219-17.902344-58.039063-13.9375-15.84375-34.054688-24.96875-55.191406-25.042969l-.105469 30.023438c12.59375.042968 24.566406 5.46875 32.847656 14.878906zm0 0" fill="#046866"/><path d="m275.847656 356.972656 31.855469 39.164063 31.664063-39.164063zm0 0" fill="#046866"/><path d="m327.035156 419.898438 28.769532 35.363281v-70.949219zm0 0" fill="#046866"/><path d="m259.28125 456.03125 29.164062-36.070312-29.164062-35.851563zm0 0" fill="#046866"/><path d="m491.992188 404.167969h-29.9375v21.347656h-19.304688v-117.792969l17.898438 14.171875 18.550781-23.566406-172.664063-136.707031-171.078125 138.699218 18.820313 23.351563 19.621094-15.90625v173.269531h-29.023438v-122.78125l-50.175781-62.25 141.015625-114.328125h-166.53125v243.839844h-20.28125v-21.347656h-29.9375v21.347656h-18.96093775v30.023437h18.96093775v25.496094h-18.964844v30.023438h511.6875v-30.023438h-19.695312v-25.496094h20.007812v-30.023437h-20.007812zm-29.9375 51.371093v25.496094h-19.304688v-25.496094zm-232.710938-128.589843h156.398438v154.085937h-47.609376l-30.355468-37.3125-30.167969 37.3125h-48.265625zm-180.441406 128.589843h20.28125v25.496094h-20.28125zm0 0" fill="#046866"/></svg>
