<?xml version="1.0"?>
<svg xmlns="http://www.w3.org/2000/svg" height="512px" version="1.1" viewBox="0 0 511 511.99973" width="512px">
<g id="surface1">
<path d="M 435.839844 12.566406 L 297.492188 150.914062 L 286.878906 140.300781 C 281.019531 134.445312 271.527344 134.445312 265.667969 140.300781 C 259.808594 146.160156 259.808594 155.65625 265.667969 161.511719 L 297.449219 193.292969 L 221.5625 269.589844 L 242.863281 290.890625 L 318.746094 214.59375 L 350.527344 246.371094 C 356.386719 252.230469 365.878906 252.230469 371.738281 246.371094 C 377.597656 240.511719 377.597656 231.019531 371.738281 225.160156 L 361.125 214.546875 L 499.472656 76.214844 C 516.035156 59.652344 517.898438 31.902344 498.5625 12.570312 C 481.804688 -4.1875 452.566406 -4.1875 435.839844 12.566406 Z M 435.839844 12.566406 " style=" fill-rule:nonzero;fill-opacity:1;" stroke="#FFFFFF" fill="#FFFFFF"/>
<path d="M 168.464844 343.988281 C 162.765625 337.988281 162.765625 328.691406 168.464844 322.6875 L 221.5625 269.589844 L 159.164062 207.1875 C 148.066406 196.386719 132.765625 191.886719 117.765625 194.886719 C 102.765625 198.1875 90.464844 208.6875 85.0625 223.386719 L 3.464844 451.089844 C -2.835938 467.890625 1.0625 486.1875 13.664062 498.789062 C 26.261719 511.386719 44.386719 515.175781 61.066406 509.289062 L 289.363281 427.386719 C 303.765625 421.988281 314.265625 409.691406 317.566406 394.691406 C 320.566406 379.691406 316.066406 364.390625 305.265625 353.289062 L 242.867188 290.886719 L 189.765625 343.988281 C 183.957031 349.792969 173.890625 349.414062 168.464844 343.988281 Z M 168.464844 343.988281 " style=" fill-rule:nonzero;fill-opacity:1;" stroke="#FFFFFF" fill="#FFFFFF"/>
</g>
</svg>
