<?xml version="1.0" encoding="iso-8859-1"?>
<!-- Generator: Adobe Illustrator 19.0.0, SVG Export Plug-In . SVG Version: 6.00 Build 0)  -->
<svg xmlns="http://www.w3.org/2000/svg" xmlns:xlink="http://www.w3.org/1999/xlink" version="1.1" id="Layer_1" x="0px" y="0px" viewBox="0 0 512.001 512.001" style="enable-background:new 0 0 512.001 512.001;" xml:space="preserve" width="512px" height="512px">
<g>
	<g>
		<path d="M58.078,427.46L5.481,480.057c-7.308,7.308-7.308,19.156,0,26.463c7.308,7.308,19.156,7.308,26.463,0l52.597-52.597    C72.461,449.108,62.892,439.539,58.078,427.46z" fill="#EEC344"/>
	</g>
</g>
<g>
	<g>
		<path d="M477.478,38.895l-0.472-3.902l-3.902-0.472c-31.443-3.807-67.927,10.781-95.216,38.07    c-27.286,27.29-41.874,63.774-38.069,95.216l0.472,3.902l3.902,0.472c3.306,0.4,6.669,0.597,10.07,0.597    c28.944,0,60.727-14.249,85.145-38.668C466.696,106.822,481.284,70.337,477.478,38.895z" fill="#EEC344"/>
	</g>
</g>
<g>
	<g>
		<path d="M343.797,4.449c-5.931-5.932-15.547-5.932-21.478,0l-45.391,45.392c-23.702,17.472-40.802,48.736-45.331,83.724    c-4.954,38.272,5.766,76.075,27.976,98.654l2.756,2.803l3.379-2.008c27.226-16.182,47.217-50.009,52.17-88.281    c3.724-28.775-1.413-57.283-13.63-79.257l39.549-39.549C349.728,19.996,349.728,10.38,343.797,4.449z" fill="#EEC344"/>
	</g>
</g>
<g>
	<g>
		<path d="M106.802,229.18l-2.756-2.802l-3.379,2.008c-27.226,16.181-47.217,50.008-52.171,88.281    c-4.954,38.273,5.766,76.074,27.976,98.654l2.756,2.802l3.379-2.008c27.226-16.182,47.217-50.009,52.17-88.281    C139.731,289.562,129.012,251.759,106.802,229.18z" fill="#EEC344"/>
	</g>
</g>
<g>
	<g>
		<path d="M198.359,137.623l-2.756-2.802l-3.379,2.008c-27.226,16.181-47.217,50.008-52.171,88.281    c-4.954,38.273,5.766,76.075,27.976,98.654l2.756,2.802l3.379-2.008c27.226-16.182,47.217-50.009,52.17-88.281    C231.288,198.005,220.569,160.202,198.359,137.623z" fill="#EEC344"/>
	</g>
</g>
<g>
	<g>
		<path d="M282.822,405.198c-22.58-22.209-60.385-32.928-98.654-27.975c-38.272,4.954-72.1,24.945-88.281,52.171l-2.008,3.379    l2.802,2.756c18.933,18.623,48.569,29.167,80.21,29.167c6.094,0,12.264-0.392,18.444-1.192    c38.273-4.954,72.1-24.944,88.281-52.171l2.008-3.379L282.822,405.198z" fill="#EEC344"/>
	</g>
</g>
<g>
	<g>
		<path d="M374.379,313.642c-22.58-22.21-60.387-32.931-98.654-27.976c-38.272,4.954-72.1,24.945-88.281,52.171l-2.008,3.379    l2.802,2.756c18.933,18.623,48.569,29.167,80.21,29.167c6.094,0,12.264-0.391,18.444-1.191    c38.273-4.954,72.1-24.944,88.281-52.171l2.008-3.379L374.379,313.642z" fill="#EEC344"/>
	</g>
</g>
<g>
	<g>
		<path d="M507.552,168.204c-5.931-5.932-15.547-5.932-21.478,0l-39.549,39.549c-21.975-12.218-50.485-17.356-79.257-13.631    c-38.272,4.954-72.1,24.945-88.281,52.171l-2.008,3.379l2.802,2.756c18.933,18.623,48.569,29.167,80.21,29.167    c6.094,0,12.264-0.391,18.444-1.191c34.989-4.529,66.254-21.629,83.726-45.332l45.39-45.39    C513.483,183.751,513.483,174.135,507.552,168.204z" fill="#EEC344"/>
	</g>
</g>
<g>
</g>
<g>
</g>
<g>
</g>
<g>
</g>
<g>
</g>
<g>
</g>
<g>
</g>
<g>
</g>
<g>
</g>
<g>
</g>
<g>
</g>
<g>
</g>
<g>
</g>
<g>
</g>
<g>
</g>
</svg>
